<svg width="163" height="50" viewBox="0 0 163 50" fill="none" xmlns="http://www.w3.org/2000/svg">
<g id="FedEx Logo" clip-path="url(#clip0_100_703)">
<g id="g15">
<g id="g17">
<path id="polygon19" d="M124.734 48.5036L138.634 33.1093L124.734 17.7129H139.4L146.284 25.1915L152.913 17.7129H167.066L153.233 33.0457L167.256 48.5036H152.531L145.709 40.9636L138.952 48.5036H124.734Z" fill="#FF6600"/>
<path id="polygon21" d="M124.734 10.8107H108.992V17.7129H124.734V28.115H108.992V37.6629H124.734V48.5036H97.4219V0H124.734V10.8107Z" fill="#FF6600"/>
</g>
<path id="path23" d="M85.8988 0V19.85H85.772C83.2212 16.96 80.0343 15.9557 76.3365 15.9557C68.7618 15.9557 63.056 21.0314 61.0531 27.7421C58.7691 20.3479 52.8785 15.8171 44.1437 15.8171C37.0502 15.8171 31.4488 18.9557 28.5256 24.07V17.7136H13.8633V10.8121H29.864V0H0.792969V48.5043H13.8633V28.115H26.8908C26.5024 29.6129 26.2951 31.2164 26.2951 32.9086C26.2951 43.0264 34.1365 50.1257 44.1437 50.1257C52.5589 50.1257 58.1046 46.2314 61.0379 39.1314H49.8372C48.322 41.2643 47.1727 41.8979 44.1437 41.8979C40.6314 41.8979 37.6031 38.8771 37.6031 35.2964H60.4104C61.3995 43.3329 67.7502 50.2636 76.4654 50.2636C80.2249 50.2636 83.6669 48.4407 85.772 45.3629H85.8988V48.5029H97.4205V0H85.8988ZM37.9669 28.26C38.6937 25.1793 41.1176 23.1657 44.1437 23.1657C47.4749 23.1657 49.7756 25.1171 50.3807 28.26C50.6357 28.26 37.9669 28.26 37.9669 28.26ZM78.9067 41.1186C74.6596 41.1186 72.0205 37.2179 72.0205 33.145C72.0205 28.7914 74.3162 24.605 78.9067 24.605C83.6669 24.605 85.5633 28.7914 85.5633 33.145C85.5625 37.2736 83.5531 41.1186 78.9067 41.1186Z" fill="white"/>
</g>
</g>
<defs>
<clipPath id="clip0_100_703">
<rect width="166.667" height="50" fill="white" transform="translate(0.792969)"/>
</clipPath>
</defs>
</svg>
