<svg width="176" height="50" viewBox="0 0 176 50" fill="none" xmlns="http://www.w3.org/2000/svg">
<g id="Hubspot Logo" clip-path="url(#clip0_100_676)">
<g id="Layer 2">
<g id="Group">
<path id="Vector" d="M19.6664 8.27637V22.38H6.81581V8.27637H0.714844V41.9431H6.81581V28.2975H19.6664V41.9431H25.7674V8.27637H19.6664Z" fill="white"/>
<path id="Vector_2" d="M45.2957 31.0606C45.2957 32.4099 44.7639 33.7039 43.8174 34.658C42.8708 35.612 41.5871 36.148 40.2484 36.148C38.9098 36.148 37.626 35.612 36.6795 34.658C35.7329 33.7039 35.2012 32.4099 35.2012 31.0606V16.6406H29.4141V31.0606C29.4141 33.9541 30.5544 36.7291 32.5843 38.7751C34.6142 40.8211 37.3673 41.9706 40.238 41.9706C43.1087 41.9706 45.8618 40.8211 47.8916 38.7751C49.9215 36.7291 51.0619 33.9541 51.0619 31.0606V16.6406H45.2957V31.0606Z" fill="white"/>
<path id="Vector_3" d="M88.1703 18.1257C88.1703 15.17 90.1102 14.233 92.2356 14.233C93.9484 14.233 96.2112 15.5466 97.6909 17.1405L101.481 12.6391C99.589 10.06 95.7509 8.27637 92.6092 8.27637C86.3319 8.27637 81.7913 11.9823 81.7913 18.1257C81.7913 29.5237 95.6134 25.9082 95.6134 32.2866C95.6134 34.2541 93.7182 35.9925 91.5481 35.9925C88.1254 35.9925 87.0164 34.3053 85.4441 32.5216L81.2383 36.9296C83.9286 40.2589 87.2466 41.9492 91.2222 41.9492C97.1857 41.9492 101.983 38.198 101.983 32.3348C101.983 19.6804 88.1613 23.6123 88.1613 18.1257" fill="white"/>
<path id="Vector_4" d="M173.681 36.5646C170.261 36.5646 169.29 35.0732 169.29 32.7893V22.6809H174.604V17.5588H169.29V10.8008L163.422 13.4552V34.0457C163.422 39.3124 167.027 41.9668 171.971 41.9668C172.746 41.981 173.521 41.9185 174.285 41.78L175.716 36.4681C175.071 36.5133 174.329 36.5585 173.681 36.5585" fill="white"/>
<path id="Vector_5" d="M67.3231 16.8093C64.4564 16.8093 62.4566 17.6469 60.5226 19.5602V8.47852H54.7266V29.0178C54.7266 36.7069 60.2416 41.9735 66.4383 41.9735C73.3134 41.9735 79.3606 36.6135 79.3606 29.3945C79.3606 22.2658 73.7947 16.8124 67.3231 16.8124V16.8093ZM67.2872 36.0953C65.9865 36.0953 64.7151 35.7065 63.6336 34.9782C62.5522 34.2498 61.7093 33.2146 61.2115 32.0034C60.7138 30.7922 60.5836 29.4594 60.8373 28.1736C61.0911 26.8878 61.7174 25.7067 62.6371 24.7797C63.5568 23.8527 64.7286 23.2214 66.0042 22.9656C67.2799 22.7099 68.6022 22.8411 69.8038 23.3428C71.0055 23.8445 72.0325 24.6941 72.7552 25.7842C73.4778 26.8742 73.8635 28.1558 73.8635 29.4668C73.8635 31.2248 73.1706 32.9107 71.9373 34.1538C70.704 35.3969 69.0313 36.0953 67.2872 36.0953Z" fill="white"/>
<path id="Vector_6" d="M130.255 29.0869C130.255 21.8558 124.22 16.5078 117.333 16.5078C111.136 16.5078 105.621 21.7745 105.621 29.4635V50.0149H111.417V38.9182C113.348 40.8284 115.351 41.669 118.215 41.669C124.686 41.669 130.252 36.2186 130.252 29.0869H130.255ZM124.767 29.0146C124.767 30.3256 124.381 31.6071 123.659 32.6972C122.936 33.7872 121.909 34.6368 120.707 35.1385C119.506 35.6402 118.183 35.7715 116.908 35.5157C115.632 35.26 114.46 34.6287 113.541 33.7016C112.621 32.7746 111.995 31.5935 111.741 30.3077C111.487 29.0219 111.617 27.6892 112.115 26.478C112.613 25.2668 113.456 24.2315 114.537 23.5032C115.619 22.7748 116.89 22.3861 118.191 22.3861C119.935 22.3861 121.608 23.0844 122.841 24.3275C124.074 25.5706 124.767 27.2566 124.767 29.0146Z" fill="white"/>
</g>
<g id="Group_2">
<path id="Vector_7" d="M148.979 16.2248V10.3556C149.748 9.99319 150.4 9.41792 150.858 8.69676C151.315 7.9756 151.56 7.13821 151.564 6.28209V6.14651C151.564 4.94788 151.092 3.79835 150.251 2.95079C149.41 2.10323 148.27 1.62708 147.081 1.62708H146.946C145.757 1.62708 144.616 2.10323 143.775 2.95079C142.935 3.79835 142.462 4.94788 142.462 6.14651V6.28209C142.466 7.13821 142.711 7.9756 143.169 8.69676C143.627 9.41792 144.278 9.99319 145.048 10.3556V16.2248C142.836 16.5659 140.753 17.4899 139.01 18.9034L123.041 6.36646C123.154 5.95304 123.215 5.52678 123.221 5.098C123.222 4.0908 122.928 3.10568 122.374 2.26727C121.82 1.42885 121.032 0.774803 120.11 0.387847C119.187 0.000890864 118.171 -0.101587 117.191 0.0933749C116.211 0.288337 115.31 0.77198 114.602 1.48313C113.894 2.19428 113.412 3.10099 113.216 4.08857C113.019 5.07615 113.118 6.10023 113.499 7.03128C113.88 7.96233 114.527 8.75853 115.357 9.31916C116.187 9.87979 117.164 10.1797 118.163 10.1809C119.037 10.1769 119.894 9.94214 120.65 9.49993L136.376 21.832C134.963 23.9831 134.226 26.5135 134.261 29.0933C134.295 31.673 135.1 34.1823 136.57 36.2941L131.788 41.1149C131.401 40.9904 130.998 40.9244 130.592 40.919C129.772 40.9196 128.97 41.1653 128.288 41.6251C127.606 42.0848 127.075 42.738 126.761 43.502C126.448 44.2661 126.366 45.1067 126.526 45.9176C126.686 46.7286 127.081 47.4734 127.661 48.0581C128.241 48.6428 128.98 49.041 129.785 49.2025C130.589 49.3639 131.423 49.2814 132.181 48.9652C132.939 48.6491 133.587 48.1135 134.044 47.4263C134.5 46.739 134.743 45.9309 134.744 45.104C134.739 44.6948 134.673 44.2886 134.55 43.8988L139.282 39.1293C140.825 40.3261 142.619 41.1511 144.527 41.5411C146.435 41.931 148.406 41.8756 150.29 41.3791C152.174 40.8826 153.92 39.9582 155.394 38.6766C156.868 37.395 158.032 35.7903 158.796 33.9853C159.561 32.1804 159.905 30.2231 159.803 28.2634C159.7 26.3037 159.155 24.3936 158.207 22.6793C157.259 20.965 155.935 19.4921 154.335 18.3733C152.736 17.2545 150.904 16.5196 148.979 16.2248ZM147.018 35.5258C145.723 35.5247 144.458 35.1367 143.383 34.4111C142.307 33.6855 141.469 32.6547 140.974 31.4491C140.48 30.2435 140.351 28.9171 140.604 27.6376C140.857 26.3581 141.48 25.183 142.396 24.2607C143.311 23.3383 144.477 22.7103 145.747 22.4558C147.016 22.2014 148.332 22.3319 149.528 22.8311C150.724 23.3302 151.746 24.1755 152.466 25.26C153.185 26.3446 153.569 27.6198 153.57 28.9245C153.57 30.6745 152.88 32.3528 151.653 33.5902C150.425 34.8276 148.76 35.5228 147.024 35.5228" fill="#FF7A59"/>
</g>
</g>
</g>
<defs>
<clipPath id="clip0_100_676">
<rect width="175" height="50" fill="white" transform="translate(0.714844)"/>
</clipPath>
</defs>
</svg>
