<svg width="161" height="50" viewBox="0 0 161 50" fill="none" xmlns="http://www.w3.org/2000/svg">
<g id="Airbnb Logo" clip-path="url(#clip0_100_674)">
<path id="Vector" d="M46.0689 35.4358C45.8168 34.8265 45.5805 34.1858 45.3284 33.639L44.1624 31.0296L44.1151 30.9827C40.6487 23.4827 36.946 15.8577 33.0227 8.3577L32.8651 8.0452C32.4712 7.31083 32.0773 6.49833 31.6676 5.74833C31.1634 4.8577 30.675 3.90458 29.8714 2.99833C29.0881 2.05009 28.1024 1.28612 26.9852 0.761537C25.8681 0.236954 24.6474 -0.0351562 23.4113 -0.0351562C22.1753 -0.0351562 20.9546 0.236954 19.8375 0.761537C18.7203 1.28612 17.7345 2.05009 16.9513 2.99833C16.2107 3.90458 15.6592 4.8577 15.155 5.74833C14.7611 6.56083 14.3672 7.3577 13.9576 8.09208L13.8 8.40458C9.9397 15.9046 6.17395 23.5296 2.70756 31.0296L2.61302 31.1233C2.26638 31.9358 1.85672 32.7796 1.46281 33.6858C1.21071 34.2327 0.958611 34.8265 0.70651 35.4827C0.0258893 37.2011 -0.191454 39.0658 0.0758992 40.8928C0.343253 42.7199 1.08608 44.4464 2.23116 45.9021C3.37624 47.3578 4.88407 48.4925 6.60602 49.1943C8.32798 49.8962 10.2046 50.141 12.051 49.9046C13.8212 49.6735 15.5257 49.0888 17.0616 48.1858C19.1099 47.0452 21.0794 45.389 23.2853 42.9983C25.4912 45.389 27.508 47.0452 29.509 48.2015C31.4334 49.3215 33.6125 49.9397 35.8431 49.9983C38.4261 50.009 40.9257 49.0925 42.8806 47.4182C44.8354 45.7439 46.1134 43.4247 46.4786 40.889C46.9006 39.0667 46.7578 37.1606 46.0689 35.4202V35.4358ZM23.4429 38.0296C20.7328 34.5921 18.9681 31.4358 18.3693 28.7327C18.1213 27.731 18.0678 26.6917 18.2118 25.6702C18.3221 24.8733 18.6214 24.1702 19.0311 23.5765C19.9765 22.2171 21.6309 21.3733 23.4429 21.3733C24.3034 21.3473 25.1569 21.5335 25.927 21.9153C26.697 22.2971 27.3593 22.8625 27.8546 23.5608C28.2643 24.1858 28.5637 24.8733 28.6582 25.6702C28.8158 26.5765 28.7527 27.6233 28.5006 28.7327C27.9019 31.389 26.1372 34.5765 23.4429 38.0296ZM43.5164 40.3421C43.3374 41.6295 42.8213 42.8479 42.0196 43.876C41.2179 44.904 40.1585 45.7058 38.9471 46.2015C37.7496 46.7015 36.426 46.8421 35.134 46.7015C33.8735 46.5452 32.613 46.139 31.321 45.389C29.1758 44.0741 27.2468 42.4405 25.6015 40.5452C28.9103 36.4827 30.9113 32.7796 31.6676 29.4827C32.03 27.9202 32.0773 26.514 31.9197 25.2171C31.723 23.9878 31.2608 22.8153 30.5647 21.7796C29.7699 20.6565 28.7091 19.7443 27.4756 19.1231C26.242 18.502 24.8734 18.1908 23.4901 18.2171C20.5752 18.2171 17.9754 19.5608 16.3998 21.764C15.6905 22.797 15.2321 23.9789 15.0605 25.2171C14.8557 26.5296 14.9029 27.9827 15.3126 29.4827C16.0689 32.7796 18.1172 36.5296 21.3788 40.5765C19.7614 42.5079 17.8279 44.1559 15.6592 45.4515C14.3515 46.2015 13.1067 46.5921 11.8462 46.7483C9.88595 46.9973 7.9058 46.469 6.33617 45.2782C4.76655 44.0874 3.73432 42.3303 3.46386 40.389C3.3063 39.139 3.41659 37.889 3.9208 36.4827C4.07836 35.9827 4.3147 35.4827 4.5668 34.889C4.91344 34.0765 5.32311 33.2327 5.71701 32.389L5.78004 32.2796C9.1834 24.8265 12.9019 17.2171 16.7622 9.76395L16.9197 9.45145C17.3137 8.70145 17.7076 7.90458 18.1172 7.15458C18.5269 6.3577 18.9681 5.59208 19.5353 4.96708C20.0263 4.38586 20.6398 3.91844 21.3326 3.59773C22.0254 3.27702 22.7807 3.11081 23.5453 3.11081C24.3098 3.11081 25.0651 3.27702 25.7579 3.59773C26.4508 3.91844 27.0643 4.38586 27.5552 4.96708C28.1067 5.59208 28.5637 6.3577 28.9733 7.15458C29.3672 7.90458 29.7611 8.71708 30.1708 9.45145L30.3284 9.76395C34.1729 17.2171 37.8914 24.8265 41.3578 32.2796L41.405 32.3265C41.8147 33.139 42.1613 34.0452 42.5552 34.8265C42.8073 35.4358 43.0594 35.9202 43.217 36.4358C43.5164 37.8421 43.6739 39.0921 43.5164 40.3421ZM65.4492 37.6858C64.2618 37.7031 63.0859 37.455 62.0085 36.96C60.931 36.465 59.9798 35.7358 59.2254 34.8265C57.5301 32.8889 56.6304 30.3906 56.7044 27.8265C56.6785 25.2065 57.6072 22.6653 59.32 20.6702C60.1122 19.7493 61.0984 19.0118 62.209 18.5097C63.3197 18.0076 64.5279 17.753 65.7485 17.764C66.897 17.7328 68.0347 17.9918 69.0545 18.5166C70.0743 19.0414 70.9428 19.8147 71.5783 20.764L71.7359 18.3108H76.3368V37.1858H71.7202L71.5626 34.4358C70.9074 35.4494 70.0018 36.28 68.9318 36.8488C67.8619 37.4176 66.663 37.7057 65.4492 37.6858ZM66.6466 33.1858C67.5605 33.1858 68.3641 32.9358 69.1204 32.4827C69.8136 31.9827 70.3809 31.3265 70.822 30.5296C71.216 29.7327 71.4208 28.7796 71.4208 27.7171C71.4822 26.7943 71.3011 25.8714 70.8951 25.0388C70.4891 24.2062 69.8722 23.4924 69.1046 22.9671C68.3671 22.5114 67.5156 22.2699 66.6466 22.2699C65.7777 22.2699 64.9261 22.5114 64.1886 22.9671C63.4954 23.4671 62.9281 24.1233 62.487 24.9202C62.0703 25.799 61.8653 26.7619 61.8882 27.7327C61.8268 28.6555 62.0079 29.5784 62.4139 30.4109C62.8199 31.2435 63.4368 31.9574 64.2044 32.4827C64.9449 32.9358 65.7485 33.1858 66.6466 33.1858ZM84.2149 13.2171C84.2149 13.764 84.1204 14.264 83.8683 14.6702C83.6162 15.0608 83.2695 15.4202 82.8126 15.6702C82.3557 15.9202 81.8672 16.014 81.363 16.014C80.8588 16.014 80.3546 15.9202 79.8977 15.6702C79.4655 15.4316 79.1021 15.0874 78.842 14.6702C78.598 14.2251 78.4783 13.7234 78.4954 13.2171C78.4954 12.6546 78.6057 12.1546 78.842 11.764C79.0941 11.2952 79.4565 11.014 79.8977 10.764C80.3546 10.514 80.8431 10.4046 81.363 10.4046C81.8645 10.3931 82.3605 10.5109 82.8024 10.7464C83.2443 10.982 83.617 11.3272 83.884 11.7483C84.1133 12.2039 84.2269 12.7081 84.2149 13.2171ZM78.8578 37.1233V18.2796H83.8683V37.1546H78.842L78.8578 37.1233ZM97.2611 23.2171V23.2796C97.0248 23.1702 96.7096 23.1233 96.4733 23.0765C96.1582 23.014 95.9061 23.014 95.6067 23.014C94.2044 23.014 93.1487 23.4202 92.4554 24.264C91.6991 25.1233 91.3525 26.3265 91.3525 27.8733V37.139H86.3262V18.264H90.9428L91.1004 21.1233C91.6046 20.1233 92.2033 19.3733 93.0542 18.8108C93.9005 18.2643 94.8969 17.9913 95.9061 18.0296C96.2685 18.0296 96.6151 18.0608 96.9145 18.1233C97.072 18.1702 97.1666 18.1702 97.2611 18.2171V23.2171ZM99.2779 37.1233V10.5296H104.288V20.6858C104.997 19.7796 105.801 19.0765 106.809 18.5296C108.406 17.7534 110.219 17.5332 111.958 17.9046C113.696 18.2759 115.257 19.2172 116.389 20.5765C118.088 22.518 118.988 25.0226 118.91 27.5921C118.936 30.2121 118.007 32.7533 116.295 34.7483C115.503 35.6692 114.516 36.4067 113.406 36.9088C112.295 37.411 111.087 37.6655 109.866 37.6546C108.718 37.6857 107.58 37.4268 106.56 36.902C105.54 36.3772 104.672 35.6038 104.036 34.6546L103.879 37.1077L99.2779 37.1546V37.1233ZM108.968 33.1858C109.866 33.1858 110.67 32.9358 111.426 32.4827C112.119 31.9827 112.687 31.3265 113.128 30.5296C113.537 29.7327 113.726 28.7796 113.726 27.7171C113.726 26.6702 113.537 25.7171 113.128 24.9202C112.714 24.1518 112.133 23.4846 111.426 22.9671C110.689 22.5114 109.837 22.2699 108.968 22.2699C108.099 22.2699 107.248 22.5114 106.51 22.9671C105.801 23.4671 105.25 24.1233 104.793 24.9202C104.376 25.799 104.171 26.7619 104.194 27.7327C104.132 28.6555 104.314 29.5784 104.72 30.4109C105.126 31.2435 105.743 31.9574 106.51 32.4827C107.251 32.9358 108.054 33.1858 108.968 33.1858ZM120.801 37.139V18.264H125.418L125.575 20.7171C126.155 19.7767 126.978 19.0072 127.959 18.488C128.94 17.9688 130.042 17.7188 131.153 17.764C132.423 17.7422 133.671 18.0923 134.742 18.7704C135.813 19.4485 136.658 20.4245 137.172 21.5765C137.723 22.764 138.023 24.2327 138.023 25.8733V37.1858H132.996V26.5296C132.996 25.2171 132.697 24.1858 132.098 23.4202C131.5 22.6702 130.68 22.264 129.64 22.264C128.884 22.264 128.222 22.4202 127.639 22.764C127.088 23.1233 126.631 23.5765 126.284 24.2171C125.934 24.8646 125.76 25.5918 125.78 26.3265V37.139H120.801ZM140.528 37.139V10.514H145.554V20.6702C146.235 19.7589 147.121 19.0175 148.141 18.5049C149.161 17.9923 150.288 17.7225 151.431 17.7171C152.619 17.6999 153.795 17.9479 154.872 18.4429C155.949 18.9379 156.901 19.6671 157.655 20.5765C159.342 22.5179 160.236 25.0148 160.16 27.5765C160.188 30.1967 159.259 32.7383 157.545 34.7327C156.753 35.6536 155.766 36.3911 154.656 36.8932C153.545 37.3953 152.337 37.6499 151.116 37.639C149.968 37.6701 148.83 37.4111 147.81 36.8863C146.79 36.3615 145.922 35.5882 145.286 34.639L145.145 37.0921L140.528 37.139ZM150.265 33.1858C151.179 33.1858 151.983 32.9358 152.723 32.4827C153.432 31.9827 153.984 31.3265 154.441 30.5296C154.835 29.7327 155.039 28.7796 155.039 27.7171C155.101 26.7943 154.92 25.8714 154.514 25.0388C154.108 24.2062 153.491 23.4924 152.723 22.9671C151.986 22.5114 151.134 22.2699 150.265 22.2699C149.396 22.2699 148.545 22.5114 147.807 22.9671C147.114 23.4671 146.547 24.1233 146.106 24.9202C145.666 25.7912 145.46 26.7598 145.507 27.7327C145.445 28.6555 145.627 29.5784 146.033 30.4109C146.439 31.2435 147.056 31.9574 147.823 32.4827C148.564 32.9358 149.32 33.1858 150.265 33.1858Z" fill="#FF385C"/>
</g>
<defs>
<clipPath id="clip0_100_674">
<rect width="160.714" height="50" fill="white"/>
</clipPath>
</defs>
</svg>
