<svg width="236" height="50" viewBox="0 0 236 50" fill="none" xmlns="http://www.w3.org/2000/svg">
<g id="Microsoft Logo" clip-path="url(#clip0_100_694)">
<path id="Vector" d="M83.5291 28.7988L82.1307 32.7523H82.0142C81.7811 31.8608 81.3538 30.5042 80.6547 28.8763L73.1578 10.0778H65.8164V40.0391H70.6719V21.5507C70.6719 20.3879 70.6719 19.0701 70.633 17.4422C70.5942 16.6282 70.5165 16.0081 70.4776 15.543H70.5942C70.8272 16.7057 71.0991 17.5585 71.2934 18.1011L80.3051 39.9616H83.7233L92.6573 17.9073C92.8515 17.4034 93.0458 16.3957 93.24 15.543H93.3565C93.24 17.7523 93.1623 19.729 93.1235 20.9306V39.9228H98.2897V10.0003H91.2201L83.5291 28.7988ZM103.184 18.4499H108.234V39.9228H103.184V18.4499ZM105.748 9.38016C104.893 9.38016 104.194 9.69024 103.611 10.2329C103.029 10.7755 102.718 11.4732 102.718 12.3259C102.718 13.1399 103.029 13.8375 103.611 14.3802C104.194 14.9228 104.893 15.1941 105.748 15.1941C106.602 15.1941 107.34 14.884 107.884 14.3802C108.467 13.8375 108.777 13.1399 108.777 12.3259C108.777 11.5119 108.467 10.8143 107.884 10.2329C107.379 9.69024 106.641 9.38016 105.748 9.38016ZM126.141 18.2561C125.208 18.0623 124.237 17.9461 123.305 17.9461C121.013 17.9461 118.916 18.4499 117.168 19.4577C115.42 20.4654 114.021 21.8608 113.128 23.605C112.196 25.3879 111.73 27.4422 111.73 29.8065C111.73 31.8608 112.196 33.6825 113.089 35.3492C113.982 36.9771 115.225 38.2949 116.896 39.1864C118.488 40.0778 120.353 40.543 122.45 40.543C124.859 40.543 126.917 40.0391 128.549 39.1088L128.588 39.0701V34.4189L128.393 34.574C127.655 35.1166 126.801 35.5817 125.946 35.853C125.053 36.1631 124.237 36.3181 123.538 36.3181C121.518 36.3181 119.926 35.7368 118.799 34.4577C117.634 33.2174 117.051 31.5119 117.051 29.3802C117.051 27.1709 117.634 25.4267 118.838 24.1476C120.042 22.8685 121.635 22.2096 123.577 22.2096C125.208 22.2096 126.879 22.7523 128.393 23.8375L128.588 23.9926V19.0701L128.549 19.0313C127.888 18.76 127.15 18.4499 126.141 18.2561ZM142.804 18.1011C141.561 18.1011 140.396 18.4887 139.386 19.3026C138.532 20.0003 137.949 21.0081 137.444 22.2096H137.405V18.4499H132.355V39.9228H137.405V28.9538C137.405 27.0933 137.794 25.543 138.648 24.4189C139.503 23.2561 140.59 22.6747 141.911 22.6747C142.377 22.6747 142.843 22.791 143.426 22.8685C143.97 23.0236 144.358 23.1786 144.63 23.3724L144.824 23.5274V18.4887L144.708 18.4499C144.358 18.2174 143.659 18.1011 142.804 18.1011ZM156.555 17.9848C153.02 17.9848 150.185 19.0313 148.204 21.0856C146.184 23.1399 145.213 25.9693 145.213 29.5352C145.213 32.8685 146.223 35.5817 148.165 37.5585C150.107 39.4964 152.748 40.5042 156.05 40.5042C159.507 40.5042 162.265 39.4577 164.246 37.3647C166.266 35.2716 167.237 32.4809 167.237 29.0313C167.237 25.6205 166.305 22.9073 164.401 20.9306C162.576 18.9538 159.896 17.9848 156.555 17.9848ZM160.595 34.4964C159.663 35.698 158.186 36.2794 156.361 36.2794C154.535 36.2794 153.059 35.698 152.01 34.4189C150.962 33.2174 150.457 31.4732 150.457 29.2639C150.457 26.9771 151 25.2329 152.01 23.9926C153.059 22.7523 154.496 22.1321 156.322 22.1321C158.109 22.1321 159.507 22.7135 160.517 23.915C161.527 25.1166 162.071 26.8608 162.071 29.1476C161.993 31.4732 161.566 33.2949 160.595 34.4964ZM178.502 27.3647C176.909 26.7057 175.899 26.2019 175.433 25.7755C175.045 25.3879 174.85 24.8453 174.85 24.1476C174.85 23.5662 175.083 22.9848 175.666 22.5972C176.249 22.2096 176.909 22.0158 177.88 22.0158C178.735 22.0158 179.628 22.1709 180.483 22.4034C181.337 22.636 182.114 22.9848 182.736 23.4499L182.93 23.605V18.8763L182.813 18.8375C182.231 18.605 181.454 18.3724 180.522 18.1786C179.589 18.0236 178.735 17.9461 178.036 17.9461C175.627 17.9461 173.646 18.5274 172.093 19.8065C170.539 21.0081 169.801 22.636 169.801 24.5352C169.801 25.543 169.956 26.4344 170.306 27.1709C170.655 27.9073 171.16 28.605 171.859 29.1864C172.559 29.729 173.569 30.3492 174.967 30.9306C176.132 31.4344 177.026 31.822 177.569 32.1321C178.113 32.4422 178.463 32.791 178.735 33.0623C178.929 33.3724 179.046 33.76 179.046 34.2639C179.046 35.698 177.958 36.3957 175.744 36.3957C174.889 36.3957 173.996 36.2406 172.947 35.8918C171.898 35.543 170.927 35.0391 170.111 34.4577L169.917 34.3026V39.2251L170.034 39.2639C170.772 39.6127 171.665 39.8453 172.753 40.1166C173.84 40.3104 174.812 40.4654 175.666 40.4654C178.269 40.4654 180.405 39.884 181.92 38.605C183.474 37.3647 184.289 35.7755 184.289 33.7212C184.289 32.2871 183.901 31.0081 183.046 30.0391C181.92 29.1088 180.522 28.1399 178.502 27.3647ZM197.613 17.9848C194.078 17.9848 191.242 19.0313 189.261 21.0856C187.28 23.1399 186.27 25.9693 186.27 29.5352C186.27 32.8685 187.28 35.5817 189.223 37.5585C191.165 39.4964 193.806 40.5042 197.108 40.5042C200.565 40.5042 203.323 39.4577 205.304 37.3647C207.324 35.2716 208.295 32.4809 208.295 29.0313C208.295 25.6205 207.362 22.9073 205.459 20.9306C203.633 18.9538 200.953 17.9848 197.613 17.9848ZM201.614 34.4964C200.681 35.698 199.205 36.2794 197.38 36.2794C195.515 36.2794 194.078 35.698 193.029 34.4189C191.98 33.2174 191.475 31.4732 191.475 29.2639C191.475 26.9771 192.019 25.2329 193.029 23.9926C194.078 22.7523 195.515 22.1321 197.341 22.1321C199.089 22.1321 200.526 22.7135 201.536 23.915C202.546 25.1166 203.09 26.8608 203.09 29.1476C203.09 31.4732 202.585 33.2949 201.614 34.4964ZM235.291 22.5972V18.4499H230.203V12.0933L230.047 12.1321L225.231 13.5662L225.114 13.605V18.4499H217.501V15.7368C217.501 14.4964 217.811 13.5274 218.355 12.9073C218.899 12.2871 219.715 11.9771 220.725 11.9771C221.424 11.9771 222.162 12.1321 222.978 12.4809L223.172 12.5972V8.21737L223.055 8.17861C222.356 7.94605 221.424 7.79102 220.22 7.79102C218.705 7.79102 217.384 8.13985 216.18 8.72125C214.976 9.38016 214.082 10.2716 213.422 11.4732C212.762 12.636 212.412 13.9538 212.412 15.4654V18.4499H208.877V22.5585H212.412V39.9228H217.501V22.5972H225.114V33.6437C225.114 38.1786 227.25 40.4654 231.523 40.4654C232.222 40.4654 232.96 40.3492 233.66 40.2329C234.398 40.0778 234.941 39.884 235.252 39.729L235.291 39.6902V35.543L235.097 35.698C234.786 35.8918 234.514 36.0468 234.048 36.1631C233.66 36.2794 233.31 36.3181 233.038 36.3181C232.028 36.3181 231.329 36.0856 230.824 35.5042C230.358 34.9616 230.125 34.0701 230.125 32.7523V22.5972H235.291Z" fill="#E7E7E7"/>
<path id="Vector_2" d="M0.714844 0H24.526V23.7597H0.714844V0Z" fill="#F25022"/>
<path id="Vector_3" d="M27.0117 0H50.8229V23.7597H27.0117V0Z" fill="#7FBA00"/>
<path id="Vector_4" d="M0.714844 26.2402H24.526V49.9999H0.714844V26.2402Z" fill="#00A4EF"/>
<path id="Vector_5" d="M27.0117 26.2402H50.8229V49.9999H27.0117V26.2402Z" fill="#FFB900"/>
</g>
<defs>
<clipPath id="clip0_100_694">
<rect width="234.615" height="50" fill="white" transform="translate(0.714844)"/>
</clipPath>
</defs>
</svg>
