<svg width="214" height="50" viewBox="0 0 214 50" fill="none" xmlns="http://www.w3.org/2000/svg">
<g id="Walmart Logo" clip-path="url(#clip0_100_700)">
<path id="Shape" d="M76.2933 17.7839V20.6175H76.38C77.3996 19.1004 79.0923 17.3137 82.8442 17.3137C85.7632 17.3137 88.0023 18.7995 88.962 21.0438H89.0486C89.8683 19.9091 90.808 19.0502 91.8609 18.4422C93.1071 17.7212 94.4933 17.3075 96.2393 17.3075C100.191 17.3075 103.69 19.8778 103.69 26.36V38.6536H97.6654V27.2188C97.6654 23.9338 96.4792 22.0343 94.0134 22.0343C92.2074 22.0343 90.8946 23.1753 90.3948 24.5795C90.2215 25.0623 90.1415 25.7205 90.1415 26.2722V38.6598H84.1171V26.7549C84.1171 23.9652 82.9775 22.028 80.5451 22.028C78.5991 22.028 77.3796 23.4699 76.8798 24.7049C76.6665 25.2315 76.5999 25.8396 76.5999 26.4101V38.6536H70.5688V17.7839H76.2933ZM134.785 17.7839V21.7209H134.952C136.058 18.7117 138.684 17.3137 140.989 17.3137C141.569 17.3137 141.889 17.3576 142.356 17.4454V22.912C141.802 22.8368 141.289 22.7615 140.57 22.7615C137.957 22.7615 136.138 24.1909 135.678 26.4289C135.578 26.8928 135.545 27.3944 135.545 27.9711V38.6598H129.36V17.7839H134.785ZM150.752 10.8691V17.4391H155.977V22.7553H150.752V30.5978C150.752 33.1368 151.439 34.3655 153.478 34.3655C154.438 34.3655 155.144 34.2527 155.757 34.1085L155.837 38.5156C155.018 38.804 153.271 39.1175 151.499 39.1175C149.413 39.1175 147.674 38.4341 146.614 37.3747C145.401 36.1648 144.841 34.1837 144.841 31.3627V10.8691H150.752ZM66.3703 38.6536H60.3726V10.8691H66.3703V38.6536ZM50.3763 31.1997C50.3763 31.5821 50.3429 31.9833 50.2297 32.3281C49.7632 33.7762 48.1704 34.9987 46.1845 34.9987C44.5251 34.9987 43.2056 34.1148 43.2056 32.2403C43.2056 29.3754 46.5643 28.5792 50.3829 28.598V31.1997H50.3763ZM56.3674 26.2032C56.3674 21.4701 54.2215 17.3137 46.9642 17.3137C43.2389 17.3137 40.28 18.298 38.6673 19.1756L39.8468 22.9747C41.3196 22.097 43.6721 21.3761 45.8979 21.3761C49.5832 21.3698 50.183 23.3383 50.183 24.5984V24.8993C42.1526 24.8867 37.0812 27.5009 37.0812 32.8296C37.0812 36.0833 39.6602 39.13 44.1519 39.13C46.9175 39.13 49.2234 38.0956 50.6095 36.4343H50.7428C50.7428 36.4343 51.6625 40.039 56.7139 38.6598C56.4473 37.1553 56.3607 35.5567 56.3607 33.6321V26.2032H56.3674ZM6.95234 10.8691C7.57211 13.8093 9.33146 22.3478 9.33146 22.3478C10.0712 25.8584 10.7509 29.5384 11.2641 32.4472H11.3574C11.8572 29.3566 12.6436 26.4289 13.4833 22.8054L16.4488 10.8691H23.0131L25.7854 23.1126C26.5118 26.5167 27.0916 29.1434 27.5514 32.3093H27.638C28.1378 29.1121 28.7909 26.3788 29.504 22.8806L32.1697 10.8691H38.4673L30.6636 38.6536C25.6921 39.6754 23.7861 37.7947 23.1064 34.8106C22.4266 31.8203 21.0938 26.1343 21.0938 26.1343C20.4074 23.0186 19.8742 20.8244 19.501 17.6272H19.4077C18.8746 20.793 18.3148 23.0123 17.4884 26.128L14.2163 38.6598C9.1382 39.6127 7.37885 38.2022 6.40587 34.3718C5.56619 31.0931 0.328125 10.8754 0.328125 10.8754H6.95234V10.8691ZM119.364 31.1997C119.364 31.5821 119.331 31.9833 119.217 32.3281C118.751 33.7762 117.158 34.9987 115.172 34.9987C113.513 34.9987 112.193 34.1148 112.193 32.2403C112.193 29.3754 115.552 28.5792 119.371 28.598V31.1997H119.364ZM125.355 26.2032C125.355 21.4701 123.209 17.3137 115.952 17.3137C112.227 17.3137 109.268 18.298 107.655 19.1756L108.835 22.9747C110.307 22.097 112.66 21.3761 114.886 21.3761C118.564 21.3698 119.171 23.3383 119.171 24.5984V24.8993C111.147 24.8867 106.076 27.5009 106.076 32.8296C106.076 36.0833 108.661 39.13 113.146 39.13C115.905 39.13 118.218 38.0956 119.597 36.4343H119.737C119.737 36.4343 120.657 40.039 125.708 38.6598C125.442 37.1553 125.355 35.5567 125.355 33.6321V26.2032Z" fill="white"/>
<path id="Shape_2" d="M180.29 29.0848C180.881 30.0995 180.841 31.232 180.21 31.7491L169.303 39.2838C168.167 39.9319 166.466 39.1464 165.503 37.5033C164.533 35.8536 164.706 34.0141 165.842 33.3661L177.918 27.828C178.676 27.5399 179.699 28.0702 180.29 29.0848ZM194.645 29.0848C195.243 28.0702 196.259 27.5465 197.016 27.8214L209.1 33.3595C210.235 34.0076 210.402 35.8471 209.438 37.4967C208.469 39.1398 206.761 39.9188 205.632 39.2773L194.725 31.7426C194.1 31.232 194.054 30.093 194.645 29.0848ZM187.464 33.1697C188.653 33.1697 189.63 33.7719 189.762 34.564L190.938 47.6434C190.938 48.9395 189.404 50 187.471 50C185.544 50 184.003 48.9395 184.003 47.6434L185.172 34.564C185.305 33.7719 186.282 33.1697 187.464 33.1697ZM194.725 18.2574L205.632 10.7162C206.761 10.0681 208.469 10.8471 209.438 12.4967C210.402 14.1464 210.235 15.9859 209.1 16.6339L197.016 22.1786C196.259 22.4535 195.236 21.9298 194.645 20.9152C194.054 19.9005 194.1 18.768 194.725 18.2574ZM177.918 22.1786L165.842 16.6339C164.712 15.9859 164.54 14.1464 165.503 12.4967C166.466 10.8471 168.173 10.0681 169.303 10.7162L180.21 18.2574C180.841 18.7615 180.881 19.9005 180.29 20.9152C179.699 21.9298 178.676 22.4535 177.918 22.1786ZM185.172 15.436L184.003 2.35664C184.003 1.06049 185.538 0 187.471 0C189.404 0 190.938 1.06049 190.938 2.35664L189.762 15.436C189.63 16.2215 188.653 16.8303 187.464 16.8303C186.282 16.8303 185.305 16.2215 185.172 15.436ZM212.388 39.2315V38.9042H212.687C212.786 38.9042 212.853 38.9696 212.853 39.0678C212.853 39.1595 212.786 39.2315 212.687 39.2315H212.388ZM212.142 39.8272C212.142 39.8599 212.169 39.8926 212.208 39.8926H212.335C212.368 39.8926 212.401 39.8599 212.401 39.8272V39.454H212.607L212.773 39.8468C212.786 39.873 212.806 39.8926 212.833 39.8926H212.986C213.032 39.8926 213.065 39.8468 213.045 39.801C212.986 39.6832 212.926 39.5588 212.866 39.4344C212.966 39.4017 213.118 39.3035 213.118 39.0678C213.118 38.8191 212.913 38.675 212.707 38.675H212.208C212.175 38.675 212.142 38.7078 212.142 38.7405V39.8272ZM211.604 39.2838C211.604 38.7536 212.042 38.3215 212.58 38.3215C213.118 38.3215 213.557 38.7471 213.557 39.2838C213.557 39.8141 213.125 40.2461 212.58 40.2461C212.036 40.2461 211.604 39.8141 211.604 39.2838ZM211.371 39.2838C211.371 39.9385 211.909 40.4753 212.58 40.4753C213.245 40.4753 213.789 39.9385 213.789 39.2838C213.789 38.6292 213.245 38.0924 212.58 38.0924C211.909 38.0924 211.371 38.6292 211.371 39.2838Z" fill="#FFC124"/>
</g>
<defs>
<clipPath id="clip0_100_700">
<rect width="213.462" height="50" fill="white" transform="translate(0.328125)"/>
</clipPath>
</defs>
</svg>
